<?xml version="1.0" encoding="utf-8"?>
<!-- Generator: Adobe Illustrator 25.2.1, SVG Export Plug-In . SVG Version: 6.00 Build 0)  -->
<svg version="1.1" id="圖層_1" xmlns="http://www.w3.org/2000/svg" xmlns:xlink="http://www.w3.org/1999/xlink" x="0px" y="0px"
	 viewBox="0 0 96.91 64.83" style="enable-background:new 0 0 96.91 64.83;" xml:space="preserve">
<style type="text/css">
	.st0{fill:#FFFFFF;}
</style>
<path id="Fill_2" class="st0" d="M64.3,54.33c-3.14-0.01-5.67-2.56-5.66-5.7c0.01-3.14,2.56-5.67,5.7-5.66
	c1.15,0,2.27,0.36,3.21,1.01V43.1h2.73v11h-2.73v-0.77C66.59,53.99,65.46,54.34,64.3,54.33z M64.43,45.51
	c-1.73,0-3.14,1.41-3.14,3.14c0,1.73,1.41,3.14,3.14,3.14c1.73,0,3.14-1.4,3.14-3.14C67.57,46.92,66.16,45.51,64.43,45.51z
	 M51.52,54.33c-3.14-0.01-5.67-2.56-5.66-5.7c0.01-3.14,2.56-5.67,5.7-5.66c1.15,0,2.27,0.36,3.21,1.01v-4.62h2.73V54.1h-2.73v-0.77
	C53.82,53.98,52.68,54.34,51.52,54.33z M51.65,45.51c-1.73,0-3.14,1.41-3.14,3.14c0,1.73,1.41,3.14,3.14,3.14
	c1.73,0,3.13-1.41,3.14-3.14C54.79,46.92,53.38,45.51,51.65,45.51L51.65,45.51z M34.68,54.33c-3.14-0.01-5.67-2.56-5.66-5.7
	c0.01-3.14,2.56-5.67,5.7-5.66c1.15,0,2.27,0.36,3.21,1.01v-4.62h2.73V54.1h-2.73v-0.77C36.97,53.98,35.84,54.34,34.68,54.33z
	 M34.8,45.51c-1.73,0-3.14,1.41-3.13,3.14c0,1.73,1.41,3.14,3.14,3.13c1.73,0,3.13-1.41,3.13-3.14
	C37.95,46.92,36.54,45.51,34.8,45.51z M21.9,54.33c-3.14-0.01-5.67-2.56-5.67-5.69c0.01-3.14,2.56-5.67,5.69-5.67
	c1.15,0,2.27,0.35,3.22,1.01V43.1h2.73v11h-2.73v-0.77C24.19,53.98,23.06,54.34,21.9,54.33z M22.02,45.51
	c-1.73,0-3.14,1.41-3.14,3.14c0,1.73,1.41,3.14,3.14,3.14c1.73,0,3.14-1.4,3.14-3.14C25.16,46.92,23.76,45.52,22.02,45.51z
	 M76.43,54.31c-3.04,0-5.05-1.49-5.14-3.78h2.79c0.02,0.83,0.66,1.72,2.39,1.72c1.29,0,1.74-0.58,1.74-1.08
	c0-0.59-0.42-0.9-1.48-1.09l-1.44-0.26c-1.68-0.31-3.77-0.69-3.77-3.23c0-2.16,1.83-3.61,4.56-3.61c2.71,0,4.49,1.38,4.64,3.59
	h-2.75c-0.05-0.96-0.77-1.5-1.98-1.5c-1.07,0-1.7,0.39-1.7,1.05c0,0.68,0.82,0.89,1.89,1.1l1.74,0.34c2.22,0.43,3.2,1.4,3.2,3.16
	C81.14,53.37,78.71,54.31,76.43,54.31L76.43,54.31z M44.72,54.1h-2.73v-11h2.73V54.1z M44.72,42.09L44.72,42.09h-2.73v-2.73
	L34.48,26.3l9.57-5.48l10.71,18.54l-10.05,0.01V42.09L44.72,42.09z M71.62,39.36H58.83l-13.3-23.09l9.55-5.51L71.62,39.36
	L71.62,39.36z M37.93,39.36H25.16l-1.85-3.25l9.55-5.49L37.93,39.36L37.93,39.36z"/>
</svg>
